# xmcd
#
# Track frame offsets:
#	150
#	14100
#	26592
#	37176
#	46752
#	58245
#	72297
#	84525
#	105243
#	121352
#	133535
#
# Disc length: 1917 seconds
#
# Revision: 0
# Processed by: cddbd v1.5.1PL0 Copyright (c) Steve Scherf et al.
# Submitted via: EasyCDDAExtractor 8.1.0.1
#
DISCID=95077b0b
DTITLE=Creedence Clearwater Revival - Susie Q
DYEAR=1900
DGENRE=Blues
TTITLE0=Proud Mary
TTITLE1=Down On The Corner
TTITLE2=Bad Moon Rising
TTITLE3=Ooby Dooby
TTITLE4=Lookin' Out My Back Door
TTITLE5=Run Through The Jungle
TTITLE6=Hey Tonight
TTITLE7=Susie Q
TTITLE8=Long As I Can See The Light
TTITLE9=Up Around The Bend
TTITLE10=My Baby Left Me
EXTD=
EXTT0=
EXTT1=
EXTT2=
EXTT3=
EXTT4=
EXTT5=
EXTT6=
EXTT7=
EXTT8=
EXTT9=
EXTT10=
PLAYORDER=
